<svg xmlns="http://www.w3.org/2000/svg" viewBox="0 0 48 48" width="48" height="48">
  <defs>
    <linearGradient id="g" x1="0" y1="0" x2="1" y2="1">
      <stop offset="0" stop-color="#22d3ee"/>
      <stop offset="1" stop-color="#6366f1"/>
    </linearGradient>
  </defs>
  <rect x="2" y="2" width="44" height="44" rx="10" fill="#0f172a"/>
  <path d="M18 14.5l15.5 9.5L18 33.5z" fill="url(#g)"/>
  <path d="M13 10l1.1 2.9L17 14l-2.9 1.1L13 18l-1.1-2.9L9 14l2.9-1.1z" fill="url(#g)" opacity="0.9"/>
  <path d="M35 8l0.9 2.1L38 11l-2.1 0.9L35 14l-0.9-2.1L32 11l2.1-0.9z" fill="url(#g)" opacity="0.75"/>
  <path d="M38 30l0.8 1.9L41 32.7l-2.2 0.8L38 35.5l-0.8-2L35 32.7l2.2-0.8z" fill="url(#g)" opacity="0.6"/>
  <rect x="9" y="38" width="30" height="2.6" rx="1.3" fill="#1e293b"/>
  <rect x="9" y="38" width="19" height="2.6" rx="1.3" fill="url(#g)"/>
</svg>
